<svg width="28" height="16" viewBox="0 0 28 16" fill="none" xmlns="http://www.w3.org/2000/svg">
<path d="M8.49707 8.30573C10.4249 8.30573 11.9971 6.75829 11.9971 4.83805C11.9971 2.9178 10.4249 1.37036 8.49707 1.37036C6.56919 1.37036 4.99707 2.9178 4.99707 4.83805C4.99707 6.75829 6.56919 8.30573 8.49707 8.30573Z" fill="white" stroke="#3A3F57"/>
<path d="M13.9912 8.30573C15.9191 8.30573 17.4912 6.75829 17.4912 4.83805C17.4912 2.9178 15.9191 1.37036 13.9912 1.37036C12.0633 1.37036 10.4912 2.9178 10.4912 4.83805C10.4912 6.75829 12.0633 8.30573 13.9912 8.30573Z" fill="white" stroke="#3A3F57"/>
<path d="M19.9912 8.30573C21.9191 8.30573 23.4912 6.75829 23.4912 4.83805C23.4912 2.9178 21.9191 1.37036 19.9912 1.37036C18.0633 1.37036 16.4912 2.9178 16.4912 4.83805C16.4912 6.75829 18.0633 8.30573 19.9912 8.30573Z" fill="white" stroke="#3A3F57"/>
<mask id="path-4-outside-1_788_495" maskUnits="userSpaceOnUse" x="0" y="7.79541" width="16" height="8" fill="black">
<rect fill="white" y="7.79541" width="16" height="8"/>
<path fill-rule="evenodd" clip-rule="evenodd" d="M14.4902 14.7308H2C2.13123 11.4308 4.87704 8.79541 8.24509 8.79541C11.6131 8.79541 14.359 11.4308 14.4902 14.7308Z"/>
</mask>
<path fill-rule="evenodd" clip-rule="evenodd" d="M14.4902 14.7308H2C2.13123 11.4308 4.87704 8.79541 8.24509 8.79541C11.6131 8.79541 14.359 11.4308 14.4902 14.7308Z" fill="white"/>
<path d="M2 14.7308L1.00079 14.691L0.959444 15.7308H2V14.7308ZM14.4902 14.7308V15.7308H15.5307L15.4894 14.691L14.4902 14.7308ZM2 15.7308H14.4902V13.7308H2V15.7308ZM2.99921 14.7705C3.10881 12.0144 5.40637 9.79541 8.24509 9.79541V7.79541C4.34771 7.79541 1.15364 10.8472 1.00079 14.691L2.99921 14.7705ZM8.24509 9.79541C11.0838 9.79541 13.3814 12.0144 13.491 14.7705L15.4894 14.691C15.3365 10.8472 12.1425 7.79541 8.24509 7.79541V9.79541Z" fill="#3A3F57" mask="url(#path-4-outside-1_788_495)"/>
<mask id="path-6-outside-2_788_495" maskUnits="userSpaceOnUse" x="5.49414" y="7.79541" width="16" height="8" fill="black">
<rect fill="white" x="5.49414" y="7.79541" width="16" height="8"/>
<path fill-rule="evenodd" clip-rule="evenodd" d="M19.9843 14.7308H7.49414C7.62537 11.4308 10.3712 8.79541 13.7392 8.79541C17.1073 8.79541 19.8531 11.4308 19.9843 14.7308Z"/>
</mask>
<path fill-rule="evenodd" clip-rule="evenodd" d="M19.9843 14.7308H7.49414C7.62537 11.4308 10.3712 8.79541 13.7392 8.79541C17.1073 8.79541 19.8531 11.4308 19.9843 14.7308Z" fill="white"/>
<path d="M7.49414 14.7308L6.49493 14.691L6.45358 15.7308H7.49414V14.7308ZM19.9843 14.7308V15.7308H21.0249L20.9835 14.691L19.9843 14.7308ZM7.49414 15.7308H19.9843V13.7308H7.49414V15.7308ZM8.49335 14.7705C8.60295 12.0144 10.9005 9.79541 13.7392 9.79541V7.79541C9.84185 7.79541 6.64778 10.8472 6.49493 14.691L8.49335 14.7705ZM13.7392 9.79541C16.578 9.79541 18.8755 12.0144 18.9851 14.7705L20.9835 14.691C20.8307 10.8472 17.6366 7.79541 13.7392 7.79541V9.79541Z" fill="#3A3F57" mask="url(#path-6-outside-2_788_495)"/>
<mask id="path-8-outside-3_788_495" maskUnits="userSpaceOnUse" x="11.4941" y="7.79541" width="16" height="8" fill="black">
<rect fill="white" x="11.4941" y="7.79541" width="16" height="8"/>
<path fill-rule="evenodd" clip-rule="evenodd" d="M25.9843 14.7308H13.4941C13.6254 11.4308 16.3712 8.79541 19.7392 8.79541C23.1073 8.79541 25.8531 11.4308 25.9843 14.7308Z"/>
</mask>
<path fill-rule="evenodd" clip-rule="evenodd" d="M25.9843 14.7308H13.4941C13.6254 11.4308 16.3712 8.79541 19.7392 8.79541C23.1073 8.79541 25.8531 11.4308 25.9843 14.7308Z" fill="white"/>
<path d="M13.4941 14.7308L12.4949 14.691L12.4536 15.7308H13.4941V14.7308ZM25.9843 14.7308V15.7308H27.0249L26.9835 14.691L25.9843 14.7308ZM13.4941 15.7308H25.9843V13.7308H13.4941V15.7308ZM14.4934 14.7705C14.6029 12.0144 16.9005 9.79541 19.7392 9.79541V7.79541C15.8419 7.79541 12.6478 10.8472 12.4949 14.691L14.4934 14.7705ZM19.7392 9.79541C22.578 9.79541 24.8755 12.0144 24.9851 14.7705L26.9835 14.691C26.8307 10.8472 23.6366 7.79541 19.7392 7.79541V9.79541Z" fill="#3A3F57" mask="url(#path-8-outside-3_788_495)"/>
</svg>
