<svg width="16" height="20" viewBox="0 0 16 20" fill="none" xmlns="http://www.w3.org/2000/svg">
<path d="M11.9664 20H3.86852C2.58526 20 1.53677 18.9456 1.46774 17.6177L1.46749 17.6113L0.704724 3.32175H15.131L14.3691 17.6139C14.2985 18.947 13.2506 20 11.9682 20H11.9663L11.9664 20ZM2.45993 5.06087L3.1232 17.5165C3.14318 17.932 3.46921 18.2609 3.8685 18.2609H11.9666C12.365 18.2609 12.6905 17.9334 12.7116 17.5211L12.7117 17.5191L13.375 5.06087H2.45993ZM15.8358 5.06087H0V3.32175H15.8358L15.8358 5.06087ZM6.33428 0H9.50147C10.8333 0.00148437 11.9127 1.13351 11.9141 2.53027V5.06087H3.92162V2.53041C3.92303 1.13353 5.00238 0.0015039 6.33414 0H6.33428ZM10.2559 3.32174V2.53041C10.2555 2.09359 9.91792 1.73963 9.50149 1.73912H6.33432C5.91782 1.73961 5.5803 2.09361 5.57984 2.53037V3.32172L10.2559 3.32174ZM8.74695 16.6435H7.08877V6.67826H8.74697L8.74695 16.6435ZM11.9141 16.6435H10.2559V6.67826H11.9141V16.6435ZM5.5798 16.6435H3.92167V6.67826H5.57986L5.5798 16.6435Z" fill="#CACACA"/>
</svg>
